<svg width="1067" height="184" viewBox="0 0 1067 184" fill="none" xmlns="http://www.w3.org/2000/svg">
<path d="M128.584 183.304H118.088C30.792 183.304 0.328 163.08 0.328 108.552V75.272C0.328 20.488 31.048 0.263992 118.088 0.263992H128.328C213.576 0.263992 244.04 20.488 244.04 75.016V88.584H127.304V64.776C127.304 53.768 125.512 51.976 123.72 51.976H122.696C120.904 51.976 119.112 53.768 119.112 64.776V118.792C119.112 129.8 120.904 131.592 122.696 131.592H123.72C125.512 131.592 127.304 129.8 127.304 118.792V95.24H244.04V108.552C244.04 163.08 213.576 183.304 128.584 183.304ZM366.57 181H250.346V48.136H360.938V130.824H363.498C364.522 67.592 376.298 46.856 403.434 46.856C410.09 46.856 415.722 47.368 420.586 47.88V130.312C411.37 129.032 402.41 128.264 392.17 128.264H391.402C370.41 128.264 366.57 131.592 366.57 142.344V181ZM544.07 181H427.846V48.136H540.486V89.864H543.046C543.046 60.68 566.598 45.832 603.462 45.832H607.302C645.19 45.832 668.742 61.96 668.742 102.152V181H552.262V104.968C552.262 93.96 550.47 92.424 548.678 92.424H547.654C545.862 92.424 544.07 94.216 544.07 104.968V181ZM813.842 80.136V87.816H795.154V103.688C795.154 109.576 796.946 112.136 805.138 112.136H805.394C808.466 112.136 811.026 111.88 813.842 111.624V181C804.37 181.512 794.642 181.512 784.146 181.512H783.89C699.154 181.512 678.93 164.872 678.93 103.432V87.816H673.81V80.136H678.93V18.44H795.154V80.136H813.842ZM939.38 181H820.596V2.56799H956.532C1044.08 2.56799 1066.61 17.672 1066.61 49.16V53C1066.61 79.88 1042.29 94.984 950.132 94.984V97.544C1039.99 97.544 1066.61 114.184 1066.61 141.064V181H947.572V113.16C947.572 102.152 945.524 100.104 942.452 100.104H939.38V181ZM939.38 51.72V92.424H942.452C945.524 92.424 947.572 90.376 947.572 79.368V64.52C947.572 53.768 945.524 51.72 942.196 51.72H939.38Z" fill="#0EA5E9"/>
</svg>
